<svg width="28" height="14" viewBox="0 0 28 14" fill="none" xmlns="http://www.w3.org/2000/svg">
<path d="M0.320796 7.77421C0.321124 7.77454 0.321396 7.77492 0.32178 7.77525L6.03684 13.4628C6.46499 13.8888 7.1575 13.8872 7.58368 13.459C8.0098 13.0309 8.00816 12.3384 7.58001 11.9123L3.74292 8.09375L26.9063 8.09375C27.5103 8.09375 28 7.60408 28 7.00001C28 6.39593 27.5103 5.90626 26.9063 5.90626L3.74298 5.90625L7.57996 2.08775C8.00811 1.66163 8.00975 0.969122 7.58363 0.540974C7.15745 0.112716 6.46488 0.111239 6.03679 0.537255L0.321725 6.22475C0.321397 6.22508 0.321124 6.22546 0.32074 6.22579C-0.107627 6.65334 -0.10626 7.34809 0.320796 7.77421Z" fill="currentColor"/>
</svg>
