<svg width="56" height="56" viewBox="0 0 56 56" fill="none" xmlns="http://www.w3.org/2000/svg">S
<path d="M29.3124 13.1C32.93 13.1 35.8627 10.1674 35.8627 6.54998C35.8627 2.93253 32.93 0 29.3124 0C25.6948 0 22.7622 2.93253 22.7622 6.54998C22.7622 10.1674 25.6948 13.1 29.3124 13.1Z" fill="#3F3881"/>
<path d="M29.3123 56.0001C31.4826 56.0001 33.242 54.2408 33.242 52.0706C33.242 49.9003 31.4826 48.141 29.3123 48.141C27.142 48.141 25.3826 49.9003 25.3826 52.0706C25.3826 54.2408 27.142 56.0001 29.3123 56.0001Z" fill="#3F3881"/>
<path d="M13.2174 19.1103C16.4735 19.1103 19.113 16.4708 19.113 13.2149C19.113 9.95892 16.4735 7.31946 13.2174 7.31946C9.96134 7.31946 7.32178 9.95892 7.32178 13.2149C7.32178 16.4708 9.96134 19.1103 13.2174 19.1103Z" fill="#3F3881"/>
<path d="M45.4074 48.6764C47.2162 48.6764 48.6826 47.2102 48.6826 45.4015C48.6826 43.5927 47.2162 42.1265 45.4074 42.1265C43.5986 42.1265 42.1323 43.5927 42.1323 45.4015C42.1323 47.2102 43.5986 48.6764 45.4074 48.6764Z" fill="#3F3881"/>
<path d="M6.55019 34.5499C9.44356 34.5499 11.7891 32.2045 11.7891 29.3112C11.7891 26.418 9.44356 24.0725 6.55019 24.0725C3.65682 24.0725 1.31128 26.418 1.31128 29.3112C1.31128 32.2045 3.65682 34.5499 6.55019 34.5499Z" fill="#3F3881"/>
<path d="M52.0722 31.9275C53.5183 31.9275 54.6906 30.7553 54.6906 29.3092C54.6906 27.8632 53.5183 26.6909 52.0722 26.6909C50.6262 26.6909 49.4539 27.8632 49.4539 29.3092C49.4539 30.7553 50.6262 31.9275 52.0722 31.9275Z" fill="#3F3881"/>
<path d="M9.9763 42.1648C8.18466 43.9563 8.18466 46.8552 9.9763 48.6467C11.7658 50.4383 14.669 50.4383 16.4585 48.6467C18.2502 46.8552 18.2502 43.9563 16.4585 42.1648C14.669 40.3711 11.7679 40.3541 9.9763 42.1648Z" fill="#3F3881"/>
<path d="M45.4052 15.1784C46.4898 15.1784 47.369 14.2992 47.369 13.2147C47.369 12.1302 46.4898 11.251 45.4052 11.251C44.3206 11.251 43.4414 12.1302 43.4414 13.2147C43.4414 14.2992 44.3206 15.1784 45.4052 15.1784Z" fill="#3F3881"/>
</svg>
