<svg width="80" height="80" viewBox="0 0 80 80" fill="none" xmlns="http://www.w3.org/2000/svg">

<path d="M40 18.6669C35.5817 18.6669 32 22.2485 32 26.6669C32.0043 31.0833 35.5835 34.6625 40 34.6668C44.4183 34.6668 48 31.0852 48 26.6669C48 22.2485 44.4183 18.6669 40 18.6669ZM40 32.0002C37.0545 32.0002 34.6667 29.6124 34.6667 26.6669C34.6667 23.7214 37.0545 21.3335 40 21.3335C42.9455 21.3335 45.3333 23.7214 45.3333 26.6669C45.3333 29.6124 42.9456 32.0002 40 32.0002Z" fill="white"/>
<path d="M54.294 38.2004C53.8538 37.7596 53.3898 37.3433 52.904 36.9533L52.9173 36.9146C57.3123 23.3521 52.396 8.50649 40.7747 0.248002C40.3112 -0.0828302 39.6889 -0.0828302 39.2254 0.248002C27.6041 8.50649 22.6877 23.3521 27.0827 36.9146L27.0961 36.9533C19.7641 42.8389 18.5914 53.5539 24.4769 60.8859C24.8669 61.3717 25.2832 61.8357 25.7241 62.2759C25.9741 62.5259 26.3131 62.6665 26.6667 62.6665C26.8099 62.6664 26.9521 62.6434 27.0881 62.5985C27.5672 62.439 27.9151 62.0225 27.9867 61.5225L28.9934 54.4772C29.0876 53.8211 29.6492 53.3337 30.3121 53.3332H34.3734L33.36 58.3999C33.2127 59.1214 33.6782 59.8257 34.3997 59.9729C34.4875 59.9909 34.577 59.9999 34.6667 59.9999H45.3334C46.0697 60 46.6669 59.4032 46.667 58.6669C46.667 58.5772 46.658 58.4877 46.64 58.3999L45.6267 53.3332H49.688C50.3512 53.3339 50.9132 53.8219 51.0067 54.4786L52.0133 61.5225C52.085 62.0225 52.4328 62.439 52.912 62.5985C53.048 62.6434 53.1902 62.6664 53.3333 62.6665C53.687 62.6665 54.026 62.5259 54.276 62.2759C60.9293 55.6327 60.9373 44.8537 54.294 38.2004ZM40 2.99083C43.2045 5.43549 45.8852 8.49932 47.8827 12.0001H32.1174C34.1149 8.49932 36.7955 5.43549 40 2.99083ZM30.3121 50.6667C28.3247 50.6752 26.6422 52.1352 26.3534 54.1014L25.7761 58.1454C23.9947 55.4559 23.1731 52.2439 23.4441 49.0294H23.4427C23.7362 45.4577 25.3529 42.1244 27.9761 39.6828L31.5041 50.6667H30.3121ZM36.2934 57.3334L37.0934 53.3334H42.9067L43.7067 57.3334H36.2934ZM34.3054 50.6667L29.9161 37.0108L29.6227 36.0974C27.3496 29.0563 27.7602 21.4233 30.7761 14.6668H49.224C52.2398 21.4233 52.6507 29.0563 50.3773 36.0974L50.084 37.0108L45.6947 50.6667H34.3054ZM54.224 58.1454L53.6467 54.1014C53.3578 52.1352 51.6753 50.6752 49.688 50.6667H48.496L52.0267 39.6828C54.6483 42.1251 56.2637 45.4582 56.556 49.0294C56.8272 52.2439 56.0055 55.4559 54.224 58.1454Z" fill="white"/>
<path d="M34.6666 62.56V66.9067C31.4288 65.9184 27.9099 66.7787 25.4933 69.1493C23.4673 66.7385 20.4823 65.3427 17.3333 65.3334C16.3625 65.3334 15.3965 65.468 14.4626 65.7334C13.386 59.3275 7.82898 54.6435 1.33333 54.6667H0V57.3334H1.33333C6.78382 57.3165 11.3596 61.434 11.916 66.856C10.6201 67.6107 9.49748 68.6297 8.62132 69.8467C6.21815 67.7935 3.16083 66.6657 0 66.6667V69.3333C5.88832 69.34 10.66 74.1117 10.6666 80H13.3333C13.3348 77.0465 12.3493 74.1772 10.5333 71.848C11.3248 70.5365 12.4748 69.4788 13.848 68.8C13.8613 68.8 13.876 68.8 13.8893 68.7867C14.9633 68.2682 16.1406 67.9993 17.3333 68C19.9175 68.012 22.3373 69.2688 23.8333 71.376C23.0756 72.8002 22.6753 74.387 22.6666 76H25.3333C25.3321 74.6368 25.7173 73.3013 26.4439 72.148H26.4359C26.4546 72.1227 26.4799 72.104 26.4986 72.0773C28.3004 69.4293 31.7349 68.4438 34.6666 69.7333V73.2267H37.3333V62.56H34.6666Z" fill="white"/>
<path d="M78.6664 57.3334H79.9998V54.6667H78.6664C72.1708 54.6435 66.6138 59.3275 65.5371 65.7334C64.6033 65.468 63.6373 65.3334 62.6665 65.3334C59.5181 65.3417 56.5331 66.736 54.5065 69.1453C52.0898 66.7747 48.571 65.9144 45.3332 66.9027V62.556H42.6665V73.2227H45.3332V69.7333C48.2647 68.4435 51.699 69.4285 53.5011 72.076C53.5198 72.1027 53.5451 72.1213 53.5638 72.1467H53.5558C54.2828 73.3003 54.6678 74.6363 54.6665 76H57.3331C57.3245 74.387 56.9241 72.8002 56.1665 71.376C57.6625 69.2688 60.0823 68.012 62.6665 68C63.8593 68.0002 65.0366 68.27 66.1105 68.7893C66.1238 68.796 66.1385 68.7973 66.1518 68.8027C67.5269 69.4798 68.6794 70.5365 69.4731 71.848C67.6546 74.1763 66.6668 77.0457 66.6665 80H69.3331C69.3398 74.1117 74.1114 69.34 79.9998 69.3333V66.6667C76.8389 66.666 73.7818 67.7937 71.3784 69.8467C70.5023 68.6297 69.3796 67.6107 68.0838 66.856C68.6403 61.4339 73.2159 57.3165 78.6664 57.3334Z" fill="white"/>
</svg>
